<svg width="40" height="40" viewBox="0 0 40 40" fill="none" xmlns="http://www.w3.org/2000/svg">
  <!-- Outer Ring -->
  <circle cx="20" cy="20" r="18" stroke="url(#gradient1)" stroke-width="2" fill="none"/>
  
  <!-- Inner Star/Network -->
  <path d="M20 8L22.5 15L30 15L24 20L26.5 27L20 22L13.5 27L16 20L10 15L17.5 15L20 8Z" 
        fill="url(#gradient2)" stroke="url(#gradient1)" stroke-width="1.5" stroke-linejoin="round"/>
  
  <!-- Center Dot -->
  <circle cx="20" cy="20" r="3" fill="url(#gradient3)"/>
  
  <!-- Connecting Lines -->
  <line x1="20" y1="8" x2="20" y2="17" stroke="url(#gradient1)" stroke-width="1.5" opacity="0.6"/>
  <line x1="30" y1="15" x2="23" y2="19" stroke="url(#gradient1)" stroke-width="1.5" opacity="0.6"/>
  <line x1="26.5" y1="27" x2="22" y2="22" stroke="url(#gradient1)" stroke-width="1.5" opacity="0.6"/>
  <line x1="13.5" y1="27" x2="18" y2="22" stroke="url(#gradient1)" stroke-width="1.5" opacity="0.6"/>
  <line x1="10" y1="15" x2="17" y2="19" stroke="url(#gradient1)" stroke-width="1.5" opacity="0.6"/>
  
  <!-- Gradients -->
  <defs>
    <linearGradient id="gradient1" x1="0" y1="0" x2="40" y2="40" gradientUnits="userSpaceOnUse">
      <stop offset="0%" stop-color="#0EA5E9"/>
      <stop offset="50%" stop-color="#3B82F6"/>
      <stop offset="100%" stop-color="#6366F1"/>
    </linearGradient>
    <linearGradient id="gradient2" x1="0" y1="0" x2="40" y2="40" gradientUnits="userSpaceOnUse">
      <stop offset="0%" stop-color="#0EA5E9" stop-opacity="0.2"/>
      <stop offset="100%" stop-color="#6366F1" stop-opacity="0.3"/>
    </linearGradient>
    <radialGradient id="gradient3" cx="50%" cy="50%" r="50%">
      <stop offset="0%" stop-color="#60A5FA"/>
      <stop offset="100%" stop-color="#3B82F6"/>
    </radialGradient>
  </defs>
</svg>
